Coordinates
version=1
nRows=8
nColumns=40
inDegrees=yes

Units are S.I. units (second, meters, Newtons, ...)
Angles are in degrees.

endheader
time	pelvis_tilt	pelvis_list	pelvis_rotation	pelvis_tx	pelvis_ty	pelvis_tz	hip_flexion_r	hip_adduction_r	hip_rotation_r	knee_angle_r	knee_angle_r_beta	ankle_angle_r	subtalar_angle_r	mtp_angle_r	hip_flexion_l	hip_adduction_l	hip_rotation_l	knee_angle_l	knee_angle_l_beta	ankle_angle_l	subtalar_angle_l	mtp_angle_l	lumbar_extension	lumbar_bending	lumbar_rotation	arm_flex_r	arm_add_r	arm_rot_r	elbow_flex_r	pro_sup_r	wrist_flex_r	wrist_dev_r	arm_flex_l	arm_add_l	arm_rot_l	elbow_flex_l	pro_sup_l	wrist_flex_l	wrist_dev_l
     57.64792857	     -5.02639254	     -4.36569240	     -4.95726231	      0.88839956	      0.92054041	      0.45100843	     27.63312427	      0.58781337	    -11.71503672	     14.75054686	     14.75054686	      4.06831974	      3.96250019	      7.92069288	     -0.25185662	     -4.52592536	     -8.53446585	     13.86236662	     13.86236662	     19.80131776	     -8.22410860	     -1.19394963	    -10.56217268	      4.91555712	      0.59497192	     -7.97685193	    -14.27766455	    -11.45696488	     29.09739610	     47.34606712	      0.00000000	      0.00000000	      9.12823676	    -13.57154068	      1.65736385	     79.98510717	     46.65205748	      0.00000000	      0.00000000
     57.66085714	     -4.79906889	     -4.15241262	     -4.95170532	      0.89045989	      0.91924059	      0.45280142	     27.19208898	      0.43698460	    -11.74392226	     15.19109244	     15.19109244	      3.77102881	      4.11658781	      6.80501499	     -1.41981616	     -4.30912925	     -8.75656992	     13.27412104	     13.27412104	     20.18452875	     -7.69894954	     -1.14448523	    -10.38477384	      4.84428849	      0.69697525	     -7.98238219	    -13.92318750	    -11.56411694	     29.51304836	     47.31747282	      0.00000000	      0.00000000	      9.62066069	    -13.35826386	      1.43672533	     81.05173446	     46.70667649	      0.00000000	      0.00000000
     57.67378571	     -4.57016563	     -3.96247925	     -4.85280321	      0.89259421	      0.91794018	      0.45455362	     26.60909998	      0.32164346	    -11.63453724	     15.44633788	     15.44633788	      1.97616433	      3.56052089	      1.44095959	     -2.39357286	     -4.16264021	     -8.87646192	     13.07468582	     13.07468582	     20.88169414	     -7.14079055	     -0.41223827	    -10.24661608	      4.82008319	      0.41729522	     -7.99234387	    -13.54505506	    -11.86649852	     30.86798309	     47.19932281	      0.00000000	      0.00000000	      9.66593085	    -13.19474728	      0.62439640	     82.82563921	     46.87708293	      0.00000000	      0.00000000
     57.68671429	     -4.39923987	     -3.77020498	     -4.76815604	      0.89451138	      0.91678084	      0.45620289	     26.48948609	      0.10576056	    -11.39564053	     16.65358428	     16.65358428	      1.86491483	      2.95939562	      0.53815312	     -3.26384159	     -3.99891651	     -8.88420290	     12.87858996	     12.87858996	     21.21347709	     -6.94804505	     -0.28281501	    -10.03073057	      4.82378852	      0.61329670	     -7.73077262	    -13.26792173	    -11.72095427	     30.89069280	     47.17368686	      0.00000000	      0.00000000	     10.35628749	    -12.87533907	      0.49123872	     83.23739370	     46.91419445	      0.00000000	      0.00000000
     57.69964286	     -4.11845480	     -3.77383317	     -4.55268540	      0.89635243	      0.91607704	      0.45776328	     26.16409449	      0.02773285	    -11.34097537	     17.79702442	     17.79702442	      1.86676595	      2.42332359	     -0.07191376	     -4.01859250	     -4.09705531	     -8.68738960	     13.11161080	     13.11161080	     21.48301559	     -6.96231847	     -0.22600831	    -10.01529712	      5.07620615	      0.61311683	     -7.29439746	    -13.08172536	    -11.63913949	     31.07414299	     47.15677688	      0.00000000	      0.00000000	     10.97186734	    -12.63332587	      0.37922609	     83.63560324	     46.93928375	      0.00000000	      0.00000000
     57.71257143	     -3.91343156	     -3.82638278	     -4.33893318	      0.89804877	      0.91557162	      0.45936831	     25.88436113	      0.01701226	    -11.28703242	     18.86807334	     18.86807334	      2.01080263	      1.93080896	     -0.55310516	     -4.60795060	     -4.27412394	     -8.46652193	     13.46871270	     13.46871270	     21.70150484	     -7.06563673	     -0.20892623	     -9.91157624	      5.35008802	      0.60206536	     -6.71368170	    -12.84571341	    -11.55880409	     31.31865728	     47.14170322	      0.00000000	      0.00000000	     11.56281963	    -12.31230552	      0.32335875	     84.00137611	     46.95663476	      0.00000000	      0.00000000
     57.72550000	     -3.83442066	     -3.57008947	     -4.12407286	      0.89929993	      0.91485150	      0.46086679	     26.15907816	     -0.30267659	    -10.74616853	     20.57571393	     20.57571393	      2.15326832	      0.58482263	     -1.73745830	     -4.57351043	     -4.18051452	     -8.13710303	     14.62789372	     14.62789372	     21.97694053	     -7.55307851	      0.02258221	     -9.76037394	      5.29353343	      0.65954233	     -6.34258347	    -12.77771958	    -11.41030569	     31.70137618	     47.10376557	      0.00000000	      0.00000000	     11.87334584	    -11.98471561	     -0.27063726	     84.77929336	     47.02617599	      0.00000000	      0.00000000
     57.73842857	     -3.63684524	     -3.63766438	     -3.80758809	      0.90055038	      0.91491071	      0.46243406	     25.81671889	     -0.23034358	    -10.46145074	     21.37067769	     21.37067769	      1.86346775	     -0.64563791	     -3.69429749	     -4.50182099	     -4.48121501	     -7.71460440	     16.11989004	     16.11989004	     22.34988282	     -8.07945262	      0.73531991	     -9.80829313	      5.59246146	      0.01155315	     -5.51482002	    -12.82485754	    -10.46055067	     32.61165035	     46.94006575	      0.00000000	      0.00000000	     11.61576130	    -11.53784565	     -1.79243220	     86.02054154	     47.21708201	      0.00000000	      0.00000000
